<svg width="401" height="502" viewBox="0 0 401 502" fill="none" xmlns="http://www.w3.org/2000/svg">
<path d="M101.462 498.381C96.0236 499.348 90.3538 498.123 85.8216 494.947C81.3575 491.819 78.3062 486.986 77.3024 481.636C77.1478 480.812 77.0023 479.988 76.8523 479.164C76.4213 476.796 75.9901 474.428 75.5591 472.061C74.8798 468.33 74.2005 464.599 73.5213 460.869C72.6202 455.92 71.719 450.97 70.8179 446.021C69.7164 439.972 68.6148 433.921 67.5133 427.872C66.2515 420.942 64.9898 414.012 63.7279 407.082C62.3285 399.396 60.9289 391.709 59.5294 384.022C58.0158 375.709 56.5022 367.396 54.9887 359.084C53.393 350.32 51.7972 341.556 50.2015 332.792C48.5564 323.756 46.9112 314.721 45.2661 305.685C43.5907 296.484 41.9152 287.282 40.2399 278.08C38.5669 268.892 36.8939 259.703 35.2208 250.515C33.5829 241.519 31.9449 232.522 30.307 223.526C28.7274 214.851 27.1479 206.176 25.5683 197.501C24.0673 189.257 22.5663 181.013 21.0652 172.769C19.6871 165.2 18.3092 157.632 16.9311 150.063C15.6956 143.278 14.4601 136.492 13.2246 129.706C12.1543 123.828 11.084 117.95 10.0135 112.071C9.14817 107.318 8.28282 102.565 7.41746 97.8125C6.77873 94.3044 6.14 90.7963 5.5014 87.289C5.11593 85.1719 4.73045 83.0548 4.34511 80.9385C4.07985 79.4816 3.79869 78.0362 3.72373 76.5509C3.44745 71.0785 5.38392 65.6191 9.05126 61.5541C12.1461 58.1236 16.3153 55.8577 20.8453 55.0188C22.3838 54.734 23.9239 54.4583 25.4633 54.178C29.0512 53.5247 32.6399 52.8713 36.2279 52.218C41.5618 51.2468 46.8957 50.2757 52.2303 49.3044C58.9802 48.0754 65.7307 46.8463 72.4806 45.6173C80.3021 44.1932 88.1228 42.7692 95.9443 41.3451C104.533 39.7813 113.123 38.2173 121.712 36.6535C130.799 34.9989 139.887 33.3442 148.974 31.6896C158.14 30.0208 167.305 28.352 176.47 26.6833C185.442 25.0497 194.415 23.416 203.386 21.7825C211.89 20.2342 220.393 18.686 228.896 17.1377C236.517 15.7502 244.137 14.3627 251.758 12.9751C258.224 11.7978 264.69 10.6205 271.156 9.44318C276.171 8.53016 281.186 7.61714 286.2 6.70411C289.387 6.12386 292.574 5.54361 295.761 4.96336C297.049 4.72884 298.336 4.46392 299.631 4.26957C305.058 3.45462 310.699 4.87861 315.102 8.16036C319.312 11.2992 322.174 15.9704 323.14 21.1276C323.306 22.0122 323.462 22.8983 323.624 23.7837C324.063 26.1987 324.503 28.613 324.943 31.028C325.632 34.8173 326.322 38.6058 327.012 42.395C327.921 47.388 328.83 52.381 329.74 57.374C330.841 63.426 331.943 69.4779 333.045 75.5298C334.319 82.5278 335.593 89.5249 336.868 96.5228C338.272 104.236 339.676 111.948 341.08 119.66C342.593 127.97 344.106 136.28 345.619 144.589C347.222 153.391 348.824 162.193 350.427 170.995C352.074 180.039 353.72 189.082 355.367 198.126C357.038 207.305 358.71 216.484 360.381 225.662C362.058 234.873 363.735 244.083 365.412 253.293C367.048 262.28 368.684 271.266 370.32 280.253C371.897 288.913 373.474 297.573 375.051 306.232C376.548 314.455 378.045 322.677 379.542 330.9C380.915 338.442 382.288 345.983 383.661 353.524C384.891 360.276 386.12 367.028 387.35 373.781C388.41 379.606 389.471 385.431 390.531 391.255C391.391 395.977 392.251 400.699 393.111 405.421C393.74 408.879 394.369 412.335 394.999 415.793C395.373 417.845 395.746 419.898 396.12 421.951C396.413 423.561 396.704 425.155 396.74 426.801C396.858 432.306 394.749 437.72 390.939 441.688C387.883 444.872 383.878 446.948 379.552 447.747C377.926 448.047 376.299 448.339 374.672 448.636C371.012 449.302 367.351 449.969 363.69 450.635C358.313 451.614 352.936 452.593 347.558 453.572C340.743 454.813 333.928 456.054 327.113 457.295C319.256 458.726 311.4 460.156 303.543 461.587C294.93 463.155 286.318 464.723 277.706 466.291C268.608 467.947 259.509 469.604 250.411 471.261C241.247 472.929 232.082 474.598 222.919 476.266C213.961 477.897 205.003 479.528 196.045 481.159C187.59 482.699 179.135 484.238 170.68 485.778C163.076 487.162 155.471 488.547 147.867 489.931C141.452 491.099 135.037 492.267 128.621 493.436C123.682 494.335 118.741 495.234 113.802 496.134C110.679 496.702 107.557 497.271 104.434 497.839C103.444 498.021 102.453 498.201 101.462 498.381Z" stroke="#CFF800" stroke-width="1.5" stroke-miterlimit="10" stroke-linecap="round" stroke-linejoin="round"/>
<path d="M153.069 39.1028C152.739 37.3769 150.376 36.9432 149.486 38.4782C148.603 40.0044 150.151 41.8656 151.811 41.2759C152.701 40.9603 153.229 40.0277 153.069 39.1028Z" stroke="#CFF800" stroke-width="1.5" stroke-miterlimit="10" stroke-linecap="round" stroke-linejoin="round"/>
<path d="M165.098 36.9221C164.762 35.2393 162.257 35.6941 162.566 37.3832C162.875 39.0707 165.4 38.6138 165.098 36.9221Z" stroke="#CFF800" stroke-width="1.5" stroke-miterlimit="10" stroke-linecap="round" stroke-linejoin="round"/>
<mask id="mask0_84_24383" style="mask-type:alpha" maskUnits="userSpaceOnUse" x="20" y="20" width="361" height="463">
<path d="M100.566 482.185C98.142 482.624 95.6112 481.663 94.0926 479.72C93.2572 478.651 92.8951 477.429 92.6577 476.125C92.3755 474.575 92.0934 473.025 91.8112 471.476C91.2818 468.568 90.7525 465.661 90.2231 462.754C89.472 458.628 88.7209 454.503 87.9697 450.377C87.0222 445.174 86.0749 439.97 85.1274 434.767C84.009 428.624 82.8907 422.482 81.7723 416.34C80.5085 409.399 79.2448 402.458 77.981 395.517C76.5972 387.917 75.2134 380.317 73.8296 372.717C72.3554 364.62 70.8814 356.525 69.4073 348.429C67.8598 339.929 66.3123 331.43 64.765 322.932C63.1783 314.218 61.5916 305.503 60.005 296.789C58.3954 287.949 56.7857 279.108 55.1761 270.268C53.5735 261.466 51.9708 252.664 50.3682 243.862C48.7979 235.238 47.2277 226.613 45.6575 217.99C44.1451 209.684 42.6328 201.377 41.1204 193.071C39.6912 185.222 38.2621 177.373 36.8329 169.523C35.5125 162.271 34.1921 155.019 32.8715 147.766C31.6852 141.251 30.4989 134.735 29.3126 128.22C28.2858 122.581 27.2591 116.942 26.2323 111.302C25.3906 106.68 24.5488 102.056 23.7071 97.4332C23.0773 93.9741 22.4473 90.5143 21.8175 87.0552C21.4212 84.8788 21.0251 82.7032 20.6288 80.5269C20.4895 79.7614 20.3347 78.9973 20.2112 78.229C19.8168 75.7874 20.7776 73.2809 22.7534 71.7753C23.9134 70.8917 25.2252 70.5839 26.6166 70.3305C28.8353 69.9266 31.0547 69.5225 33.2734 69.1185C37.3188 68.3819 41.3641 67.6454 45.4095 66.9088C50.9866 65.8934 56.5636 64.8779 62.1415 63.8623C68.956 62.6216 75.7706 61.3808 82.5851 60.14C90.343 58.7275 98.1008 57.315 105.858 55.9026C114.264 54.372 122.67 52.8415 131.077 51.3108C139.837 49.7158 148.598 48.1207 157.359 46.5255C166.154 44.9242 174.949 43.3228 183.744 41.7214C192.331 40.158 200.917 38.5945 209.504 37.0311C217.54 35.5679 225.576 34.1048 233.613 32.6414C240.852 31.3235 248.09 30.0055 255.329 28.6876C261.451 27.5729 267.572 26.4583 273.695 25.3436C278.406 24.4858 283.117 23.628 287.828 22.7702C290.834 22.223 293.84 21.6756 296.846 21.1283C297.937 20.9296 299.03 20.6907 300.129 20.536C302.581 20.1915 305.082 21.2596 306.522 23.2781C307.27 24.3285 307.573 25.5014 307.798 26.7394C308.091 28.3461 308.383 29.9527 308.676 31.5594C309.214 34.5179 309.753 37.4771 310.292 40.4355C311.049 44.5933 311.806 48.751 312.563 52.908C313.514 58.1323 314.465 63.3574 315.417 68.5817C316.54 74.7535 317.664 80.9252 318.788 87.097C320.056 94.063 321.324 101.029 322.593 107.995C323.98 115.616 325.368 123.236 326.755 130.856C328.236 138.991 329.718 147.127 331.199 155.262C332.749 163.772 334.298 172.283 335.848 180.793C337.44 189.538 339.032 198.284 340.625 207.03C342.235 215.871 343.844 224.713 345.454 233.555C347.056 242.352 348.658 251.15 350.26 259.948C351.828 268.562 353.397 277.176 354.965 285.79C356.475 294.081 357.984 302.372 359.494 310.662C360.915 318.469 362.336 326.275 363.758 334.081C365.07 341.289 366.382 348.496 367.695 355.704C368.876 362.192 370.057 368.68 371.239 375.168C372.259 380.774 373.28 386.381 374.301 391.988C375.136 396.573 375.971 401.16 376.806 405.745C377.43 409.171 378.053 412.596 378.677 416.022C379.064 418.147 379.451 420.272 379.838 422.397C379.983 423.193 380.161 423.99 380.265 424.792C380.586 427.25 379.482 429.746 377.446 431.161C376.293 431.962 375.013 432.214 373.67 432.459C371.373 432.877 369.075 433.295 366.777 433.714C362.665 434.463 358.553 435.211 354.44 435.96C348.826 436.982 343.212 438.005 337.597 439.027C330.762 440.271 323.929 441.516 317.095 442.76C309.309 444.177 301.525 445.595 293.74 447.012C285.316 448.546 276.893 450.08 268.47 451.613C259.703 453.21 250.935 454.806 242.168 456.402C233.351 458.008 224.534 459.613 215.717 461.218C207.145 462.779 198.573 464.34 190 465.901C181.967 467.363 173.934 468.826 165.901 470.289C158.702 471.599 151.502 472.91 144.303 474.221C138.232 475.326 132.161 476.432 126.09 477.537C121.441 478.384 116.793 479.23 112.144 480.076C109.212 480.61 106.28 481.144 103.349 481.678C102.421 481.847 101.493 482.016 100.566 482.185Z" fill="#E7ECED"/>
</mask>
<g mask="url(#mask0_84_24383)">
</g>
<g clip-path="url(#clip0_84_24383)">
<rect x="18.9102" y="71.6231" width="292" height="419" rx="8" transform="rotate(-10.3191 18.9102 71.6231)" fill="#E7ECED"/>
<path fill-rule="evenodd" clip-rule="evenodd" d="M276.71 321.473C274.286 321.077 271.921 320.541 269.671 319.528C263.127 316.295 258.196 310.534 253.533 305.074C246.913 297.104 241.627 288.289 237.366 278.865C235.535 274.817 234.28 269.964 231.191 266.642C224.306 259.76 208.506 263.691 200.269 266.619C194.767 268.658 194.749 275.222 194.313 280.155C193.949 284.255 193.964 288.332 194.102 292.441C192.865 293.619 191.415 294.657 190.021 295.585C174.458 303.63 173.265 313.51 169.6 329.103C162.791 352.037 135.438 365.512 135.604 391.156C135.784 408.074 146.579 422.055 157.294 434.195C167.673 447.697 179.678 452.898 196.082 446.275C211.417 439.784 225.692 430.998 240.555 423.511C247.822 420.259 254.533 414.02 262.843 414.256C280.004 414.951 297.261 413.604 314.071 410.048C337.97 406.686 333.827 383.957 328.187 366.798C321.494 339.716 304.451 324.647 276.71 321.473V321.473Z" fill="white"/>
<path fill-rule="evenodd" clip-rule="evenodd" d="M285.514 360.821C287.735 361.769 289.763 363.449 291.482 365.294C285.788 365.731 280.088 366.078 274.384 366.329C275.028 365.732 275.681 365.143 276.355 364.577C278.818 362.534 282.081 359.357 285.514 360.821ZM195.677 394.213C194.58 393.999 193.9 392.513 193.339 391.693C191.578 389.119 189.917 386.478 188.214 383.866C192.491 381.761 196.618 379.539 201.167 378.004C206.057 376.354 211.123 375.247 216.224 374.489C226.556 372.954 237.037 372.777 247.462 372.735C257.875 372.693 268.275 372.581 278.678 372.085C288.871 371.598 299.03 370.751 309.186 369.782C311.159 369.594 314.526 369.701 315.811 367.89C316.828 366.456 316.462 364.219 314.735 363.518C313.659 363.081 312.26 363.327 311.133 363.386C309.713 363.46 308.298 363.595 306.885 363.757C306.31 363.823 305.735 363.892 305.16 363.961C309.413 361.411 314.012 359.605 319.011 358.965C319.6 360.612 321.179 362.129 322.124 363.404C323.775 365.629 325.165 367.932 326.266 370.477C328.567 375.799 329.673 381.555 330.341 387.288C330.867 392.073 331.099 397.43 327.996 401.453C325.646 404.498 321.851 406.158 318.226 407.123C314.012 408.244 309.603 408.669 305.258 408.869C299.164 409.149 292.996 409.175 286.906 408.814C275.111 408.115 263.489 405.701 252.42 401.575C247.022 399.564 241.781 397.149 236.336 395.259C230.788 393.333 225.033 392.103 219.163 391.758C212.594 391.371 205.899 391.915 199.503 393.47C198.393 393.74 196.846 394.441 195.677 394.213ZM187.87 392.696C188.92 394.717 189.871 397.07 191.61 398.612C193.332 400.14 195.555 400.386 197.768 400.146C200.436 399.858 203.078 399.25 205.735 398.868C211.185 398.083 216.683 397.988 222.151 398.656C227.246 399.279 232.149 400.804 236.934 402.615C241.358 404.29 245.698 406.163 250.123 407.831C249.15 408.51 248.196 409.226 247.224 409.876C245.185 411.239 243.126 412.57 241.054 413.88C236.966 416.463 232.853 419.006 228.671 421.434C220.239 426.33 211.584 430.842 202.742 434.954C198.525 436.914 194.28 439.081 189.715 440.11C185.668 441.023 181.68 440.56 177.95 438.738C170.213 434.96 163.465 428.701 157.775 422.351C154.395 418.579 151.308 414.531 148.586 410.259C147.209 408.099 145.915 405.887 144.701 403.632C144.132 402.573 143.58 401.504 143.046 400.427C142.811 399.953 142.582 399.476 142.354 398.999C148.944 395.604 155.654 392.4 162.685 390.019C166.439 388.748 170.296 387.749 174.204 387.081C176.143 386.749 178.097 386.501 180.059 386.35C181.115 386.268 182.172 386.219 183.231 386.203C183.669 386.196 184.124 386.22 184.576 386.217C185.661 388.383 186.752 390.546 187.87 392.696ZM330.431 357.341C330.668 356.514 330.691 355.738 330.675 354.887C330.663 354.238 330.774 353.3 330.387 352.525C329.952 351.657 329.074 350.97 328.409 350.283C327.674 349.524 326.939 348.764 326.205 348.004C324.737 346.484 323.272 344.961 321.808 343.437C315.829 337.214 309.879 330.964 303.923 324.72C298.636 319.179 293.41 313.569 288.013 308.135C283.398 303.489 278.471 298.99 272.726 295.769C265.462 291.697 257.496 290.606 249.294 290.116C248.275 289.383 247.041 289.107 245.834 289.428C243.748 287.785 242.124 286.667 241.047 284.29C240.531 283.151 240.015 279.782 238.722 279.288C237.187 278.701 236.667 279.943 236.513 281.263C236 285.68 238.488 291.04 242.621 294.619C242.093 299.775 241.478 307.077 238.835 311.612C236.005 316.467 231.271 318.68 225.922 319.743C215.722 321.77 204.811 319.836 195.811 314.679C193.075 313.111 190.466 311.28 188.04 309.268C186.221 307.758 183.952 305.331 182.405 303.466C182.257 302.656 181.145 301.983 190.778 299.554C200.41 297.124 198.723 283.66 198.61 281.806C198.518 280.301 198.851 277.879 197.592 276.867C197.058 276.437 196.137 276.52 195.641 276.968C194.705 277.814 194.663 279.55 194.538 280.746C194.363 282.422 194.642 292.572 191.972 294.239C190.722 295.02 189.179 295.311 187.771 295.67C186.034 296.113 184.286 296.524 182.57 297.048C181.938 297.241 181.27 297.578 180.633 297.7C180.219 297.78 179.754 297.656 179.327 297.588C177.886 297.357 176.599 297.961 175.238 298.403C163.207 302.302 151.196 308.39 141.914 317.1C133.732 324.776 128.769 334.578 126.292 345.432C123.765 356.508 123.267 368.079 123.147 379.403C123.106 383.197 123.159 386.992 123.301 390.784C123.438 394.447 123.46 398.214 123.963 401.848C124.162 403.286 124.745 404.55 125.508 405.758C126.367 407.117 127.872 407.44 129.339 407.881C132.559 408.849 135.88 409.45 139.232 409.693C141.835 412.889 144.154 416.281 146.174 419.871C145.86 420.931 146.114 422.382 146.191 423.343C146.385 425.735 146.715 428.115 147.124 430.479C147.943 435.218 149.088 439.892 150.172 444.575C151.27 449.324 155.465 468.089 156.008 470.374C156.43 472.15 156.758 474.682 157.994 476.101C159.894 478.283 163.468 477.547 164.769 475.261C207.684 476.604 284.834 459.799 315.289 449.646C319.252 448.325 318.092 449.201 318.939 447.987C319.575 447.075 319.996 445.636 320.018 444.536C320.047 443.069 319.351 441.872 318.33 440.874C317.258 439.826 316.747 437.904 316.169 436.53C314.804 433.283 311.725 418.487 311.075 416.904C310.872 416.41 310.668 415.887 310.441 415.367C316.276 414.865 322.252 413.777 327.36 410.869C330.256 409.22 332.831 406.989 334.609 404.149C336.762 400.71 337.582 396.725 337.646 392.71C337.729 387.533 336.998 382.319 335.878 377.275C334.514 371.322 332.408 365.416 328.929 360.355C329.606 359.451 330.123 358.416 330.431 357.341Z" fill="black"/>
<path fill-rule="evenodd" clip-rule="evenodd" d="M163.297 166.354C179.647 162.446 193.434 155.143 206.949 163.408C206.949 163.408 223.199 145.944 227.31 150.72C230.065 153.92 228.025 159.261 229.612 163.54C236.292 171.301 238.681 186.059 239.597 189.453C241.905 198.007 252.432 229.861 253.846 237.623C254.567 241.585 253.189 252.556 252.205 258.702C250.016 272.379 242.563 280.504 228.385 283.086C214.206 285.667 188.907 278.033 179.57 268.866C178.751 268.063 175.035 271.518 169.785 267.654C164.099 263.468 159.7 254.309 158.653 248.563C157.326 241.271 151.691 237.073 150.54 227.639C147.969 206.571 145.801 170.536 163.297 166.354Z" fill="white"/>
<path fill-rule="evenodd" clip-rule="evenodd" d="M157.039 142.455C157.251 142.403 157.471 142.374 157.692 142.355C157.932 142.322 158.175 142.302 158.422 142.306C159.678 142.318 160.877 142.763 161.881 143.514C161.908 143.533 161.932 143.557 161.957 143.576C162.404 143.801 162.829 144.07 163.222 144.366C163.269 144.301 163.314 144.236 163.365 144.17C163.51 143.986 163.665 143.809 163.828 143.639C164.495 142.818 165.332 142.158 166.277 141.696L166.407 141.634C166.431 141.622 166.457 141.612 166.482 141.602C167.147 141.237 167.869 140.981 168.619 140.847C169.51 140.655 170.436 140.639 171.337 140.831C172.406 141.062 173.389 141.554 174.257 142.203C174.804 142.504 175.299 142.855 175.825 143.244C176.911 144.05 177.836 145.057 178.517 146.227C178.612 146.391 178.7 146.561 178.783 146.733C179.868 146.403 180.965 146.109 182.071 145.861C183.307 145.558 184.553 145.304 185.813 145.118C189.285 144.602 192.771 144.595 196.242 145.114C196.933 145.188 197.614 145.318 198.283 145.51C199.314 145.718 200.312 146.04 201.277 146.473L202.086 146.773C202.492 146.924 202.899 147.078 203.295 147.24C204.241 147.628 205.153 148.09 206.033 148.606C206.952 149.108 207.838 149.675 208.693 150.282C208.926 150.446 209.151 150.615 209.375 150.784C211.199 151.378 212.884 152.257 214.51 153.375C215.487 152.549 216.514 151.774 217.588 151.056C218.696 150.315 220.126 149.5 221.322 148.917C222.397 148.394 223.476 147.972 224.582 147.606C225.082 147.423 225.588 147.257 226.099 147.102L226.079 147.114V147.114C226.439 147.008 226.797 146.907 227.161 146.809L227.15 146.808V146.808C227.305 146.767 227.462 146.724 227.617 146.685L227.994 146.584V146.584C228.108 146.553 228.325 146.792 228.352 146.884L228.383 146.979V146.979C228.487 147.06 228.585 147.153 228.652 147.209C228.719 147.191 228.787 147.173 228.854 147.158C229.055 147.103 229.358 147.424 229.503 147.541L229.636 147.649C229.787 147.776 229.942 147.925 229.997 148.109C230.328 149.172 230.653 150.239 230.966 151.308C231.161 152.125 231.265 152.95 231.277 153.785C231.317 154.589 231.356 155.395 231.394 156.197C231.326 156.778 231.261 157.358 231.196 157.938C231.169 158.16 231.133 158.38 231.1 158.6C230.933 160.059 230.686 161.494 230.338 162.904C230.851 163.299 231.339 163.716 231.801 164.154C231.906 164.229 232.012 164.303 232.112 164.382C232.129 164.341 232.157 164.301 232.19 164.276C232.306 164.198 232.41 164.247 232.508 164.34C233.477 164.978 234.245 165.789 234.808 166.771L235.14 167.277C235.195 167.361 235.25 167.446 235.304 167.531C235.745 168.274 236.122 169.05 236.461 169.843C236.749 170.464 236.99 171.102 237.19 171.755C238.102 173.552 238.903 175.415 239.675 177.256C239.796 177.546 239.814 177.821 239.759 178.068L240.049 178.263V178.263L240.548 178.606C241.385 179.184 242.243 179.795 242.922 180.539C243.626 181.312 244.197 182.172 244.811 183.016L244.943 183.195V183.195L245.211 183.554C245.501 183.945 245.646 184.164 245.929 184.65C246.399 185.461 246.725 186.303 246.972 187.208C247.331 188.526 247.581 189.988 247.22 191.34C247.219 191.351 247.216 191.36 247.212 191.368C247.164 192.62 246.706 193.856 245.832 194.751C245.654 194.992 245.456 195.215 245.236 195.404C244.708 195.859 244.171 195.989 243.496 195.945L243.411 195.939C243.326 195.933 243.25 195.928 243.176 195.925C243.297 195.993 243.368 196.085 243.224 196.187C243.085 196.288 242.956 196.355 242.831 196.394C242.899 196.455 242.918 196.53 242.814 196.614C242.587 196.793 242.39 196.873 242.174 196.874L242.284 197.23C243.13 199.924 243.536 200.413 244.344 203.325C245.075 206.323 245.908 209.295 246.847 212.235L247.181 213.304C248.243 216.693 249.364 220.098 250.727 223.374C251.373 224.796 251.969 226.239 252.517 227.701C253.111 228.781 253.595 229.908 253.963 231.081C254.403 232.262 254.777 233.467 255.089 234.693C255.535 235.432 255.829 236.212 255.971 237.036C256.212 238.135 256.376 239.245 256.458 240.364C256.6 241.518 256.649 242.679 256.604 243.845C256.662 245.424 256.526 246.984 256.206 248.531C256.033 250.224 255.749 251.905 255.38 253.567C254.806 256.14 253.991 258.581 253.003 261.021C252.077 263.309 251.042 265.539 249.783 267.666C248.155 270.414 246.203 273.017 243.963 275.319C242.693 276.671 241.322 277.928 239.854 279.056C238.059 280.439 236.213 281.725 234.18 282.736C232.912 283.368 231.597 283.883 230.256 284.339C227.622 285.233 224.807 285.683 221.998 285.71C220.199 285.794 218.398 285.699 216.659 285.412C215.229 285.175 213.85 284.855 212.457 284.464C211.742 284.267 211.041 284.015 210.358 283.715C209.215 283.238 208.122 282.663 207.08 281.997C206.744 281.801 206.415 281.598 206.088 281.382C205.933 281.288 205.974 281.099 206.121 281.029L206.168 281.015V281.015C206.097 280.971 206.024 280.928 205.954 280.881C205.939 280.873 205.926 280.862 205.913 280.851C205.879 280.83 205.843 280.809 205.812 280.788C205.694 280.717 205.76 280.5 205.84 280.436C205.871 280.412 205.915 280.401 205.966 280.397C205.953 280.389 205.944 280.382 205.932 280.376C205.92 280.37 205.914 280.35 205.913 280.328L205.868 280.304V280.304C205.712 280.21 205.749 280.025 205.898 279.952C205.971 279.915 206.1 279.903 206.237 279.908L206.289 279.911L206.184 279.843C206.002 279.735 206.024 279.574 206.21 279.492C206.356 279.474 206.503 279.468 206.65 279.477L206.761 279.486C206.816 279.49 206.868 279.496 206.924 279.503C206.82 279.438 206.717 279.375 206.615 279.31C206.515 279.25 206.567 279.015 206.638 278.957C206.734 278.877 206.959 278.922 207.069 278.975C207.312 278.958 207.646 279.006 207.779 279.084C208.151 279.33 208.532 279.562 208.916 279.784C209.13 279.81 209.336 279.859 209.506 279.958C209.949 280.251 210.404 280.52 210.865 280.777L211.208 280.932C211.266 280.957 211.323 280.982 211.381 281.006C212.019 281.239 212.656 281.469 213.292 281.702C215.526 282.032 217.76 282.362 219.992 282.689L220.285 282.722V282.722L222.372 282.602V282.602C223.74 282.499 225.083 282.247 226.396 281.847C227.405 281.678 228.385 281.396 229.331 281.013C230.949 280.426 232.511 279.711 233.999 278.839C235.711 277.837 237.299 276.639 238.833 275.379C239.383 274.924 239.92 274.45 240.442 273.958C240.609 273.787 240.775 273.613 240.94 273.436C242.028 272.261 243.05 271.033 244.017 269.755C244.471 269.155 244.9 268.539 245.308 267.907C245.367 267.815 245.424 267.726 245.48 267.634C245.869 267.017 246.238 266.384 246.583 265.736L246.923 265.177V265.177C248.257 262.717 249.369 260.129 250.315 257.502C251.254 254.897 251.93 252.213 252.359 249.485C252.481 248.518 252.564 247.545 252.603 246.569C252.785 245.372 252.829 244.17 252.733 242.97C252.73 242.732 252.719 242.495 252.709 242.259L252.661 241.892C252.652 241.831 252.643 241.77 252.633 241.71C252.619 241.334 252.597 240.958 252.564 240.585C252.518 240.212 252.463 239.84 252.399 239.47L251.957 237.209V237.209C251.937 237.14 251.915 237.068 251.897 236.996L251.748 236.506C251.434 235.496 251.149 234.479 250.835 233.47C250.834 233.464 250.833 233.457 250.829 233.449C250.711 233.073 250.591 232.694 250.463 232.317C250.392 232.091 250.313 231.868 250.237 231.643L250.098 231.252V231.252C249.849 230.572 249.575 229.904 249.27 229.247L249.138 228.966L248.264 226.756L247.34 224.594C246.732 223.143 246.177 221.671 245.677 220.176C244.833 217.802 244.046 215.414 243.302 213.007C243.265 212.892 243.227 212.775 243.193 212.659C242.476 210.432 241.842 208.181 241.282 205.909C240.678 203.681 240.155 201.432 239.713 199.166C239.691 199.064 239.744 198.968 239.817 198.905L239.73 198.47C239.65 198.085 239.727 198.55 239.644 198.11L239.418 196.9C239.4 196.799 239.388 196.728 239.39 196.723C238.007 197.075 237.051 197.167 235.686 197.342L235.454 197.372C234.204 197.54 232.948 197.628 231.687 197.646C231.693 197.71 231.659 197.762 231.591 197.788C231.466 197.816 231.348 197.838 231.228 197.863L231.303 198.025V198.025C231.322 198.111 231.292 198.173 231.213 198.212L230.866 198.291C230.403 198.396 229.936 198.49 229.462 198.512C229.035 198.533 228.611 198.509 228.186 198.468C227.93 198.471 227.665 198.46 227.392 198.434C226.692 198.364 225.985 198.227 225.279 198.145C224.571 198.124 223.871 198.203 223.179 198.508C222.447 198.828 221.859 199.273 221.021 199.22C220.854 199.21 220.688 199.178 220.522 199.143L220.377 199.159C220.352 199.161 220.327 199.163 220.301 199.164C219.443 199.196 218.603 198.803 217.754 198.664C217.464 198.647 217.191 198.715 216.942 198.876L216.88 198.919L216.651 199.163C216.567 199.308 216.485 199.454 216.404 199.601L216.283 199.82C216.062 200.226 215.816 200.598 215.488 200.896C215.118 201.389 214.632 201.726 214.003 201.857C213.646 201.933 213.276 201.921 212.91 201.875C211.678 202.516 210.296 202.851 208.922 202.695C208.392 202.711 207.861 202.664 207.336 202.535C207.089 202.474 206.84 202.395 206.595 202.301C205.746 202.857 204.97 203.531 204.162 204.139L203.981 204.276C203.155 204.893 202.231 205.517 201.192 205.638C199.882 205.789 198.579 205.848 197.271 205.861C197.261 205.863 197.247 205.863 197.236 205.862L197.056 205.865V205.865L196.401 205.869V205.869L195.872 205.867V205.867L195.629 206.015C193.673 207.192 191.484 208.231 189.272 208.06C188.332 208.115 187.413 207.962 186.539 207.577C186.509 207.564 186.48 207.55 186.45 207.534C186.315 207.494 186.187 207.444 186.071 207.387L186.046 207.374V207.374L186.023 207.36L186.011 207.357C184.765 207.037 183.899 206.031 183.784 204.747C183.641 204.359 183.572 203.965 183.574 203.532C183.28 204.043 182.977 204.55 182.668 205.055C181.56 207.022 180.488 209.017 179.532 211.064L179.313 211.538C178.787 212.665 178.317 213.817 177.903 214.991C177.478 216.154 177.036 217.309 176.571 218.455C175.893 219.547 175.247 220.657 174.636 221.784L174.376 222.268L173.511 223.971C172.88 225.072 172.402 226.236 172.081 227.464C171.795 228.347 171.546 229.24 171.34 230.146C171.271 230.421 171.208 230.698 171.147 230.974C170.96 232.045 170.834 233.124 170.783 234.224C170.726 235.023 170.727 235.824 170.786 236.624L170.808 236.891C170.833 237.206 170.866 237.519 170.909 237.831C170.993 237.862 171.064 237.895 171.119 237.931L171.323 237.964V237.964L171.486 237.982C171.741 238.013 172.185 238.091 172.121 238.3L171.79 239.357V239.357C171.853 239.402 171.887 239.456 171.864 239.525C171.644 240.233 171.421 240.942 171.198 241.652C171.192 241.677 171.177 241.699 171.161 241.716C171.476 241.796 171.786 241.891 172.085 242.002C172.669 242.221 173.123 242.514 173.56 242.873C173.978 243.03 174.379 243.211 174.766 243.433C175.26 243.792 175.708 244.204 176.109 244.664C176.481 245.1 176.804 245.566 177.079 246.065C177.208 246.331 177.298 246.615 177.349 246.912C177.44 249.207 174.6 248.141 174.515 247.953C173.917 246.665 173.358 245.885 172.268 245.044L172.242 245.032V245.032C171.676 244.897 171.115 244.764 170.54 244.684C170.462 244.715 170.38 244.741 170.298 244.769C170.417 244.886 170.394 245.025 170.207 245.083C169.411 245.396 168.585 245.592 167.734 245.674L166.427 245.726V245.726C165.936 246.024 165.478 246.376 165.059 246.773L164.92 246.907L164.895 246.933C163.846 248.144 163.136 249.63 162.747 251.179C162.712 251.317 162.68 251.455 162.651 251.595L162.609 251.805L162.606 251.816C162.364 255.306 163.788 258.831 165.891 261.575C166.984 262.775 168.109 263.943 169.268 265.077L170.378 266.085V266.085C170.998 266.487 171.61 266.903 172.211 267.335C172.304 267.399 172.402 267.462 172.5 267.523C172.799 267.65 173.1 267.755 173.402 267.835C173.516 267.852 173.632 267.866 173.747 267.875C174.329 268.035 174.914 268.069 175.507 267.977C176.295 267.887 177.034 267.658 177.723 267.293L177.86 267.218L177.96 267.16C178.312 266.833 178.624 266.449 178.907 266.013C178.971 265.917 179.118 265.89 179.294 265.904C179.368 265.793 179.442 265.677 179.509 265.554C179.557 265.477 179.651 265.458 179.734 265.494C179.977 265.42 180.721 265.68 180.582 265.913C180.561 265.966 180.532 266.014 180.509 266.065C180.638 266.104 180.768 266.15 180.886 266.202C181.464 266.254 182.377 266.655 182.341 266.833L182.336 266.847C182.252 267.111 182.123 267.344 181.949 267.541L181.889 267.605L181.754 267.741C181.996 267.838 182.208 267.961 182.136 268.088C182.109 268.177 182.079 268.264 182.04 268.344C182.585 268.813 183.129 269.288 183.671 269.763C184.285 270.637 184.992 271.428 185.792 272.135C186.498 272.933 187.297 273.618 188.19 274.197C188.265 274.249 188.341 274.297 188.415 274.346C189.052 274.659 189.711 274.94 190.391 275.202L190.684 275.313C190.838 275.372 191.091 275.434 191.017 275.656C191.009 275.684 190.997 275.709 190.982 275.727C191.413 275.909 191.854 276.075 192.306 276.22L192.349 276.237C192.523 276.308 192.766 276.45 192.571 276.637C192.406 276.797 191.843 276.548 191.579 276.433C191.534 276.442 191.479 276.438 191.424 276.432C191.51 276.459 191.596 276.491 191.683 276.521L191.813 276.564C191.915 276.602 192.42 276.819 192.129 277.002C191.977 277.043 191.828 277.03 191.681 276.964C191.512 276.916 191.345 276.863 191.181 276.806C191.248 276.878 191.263 276.959 191.141 277.036C191.097 277.046 191.052 277.052 191.007 277.055C191.352 277.195 191.702 277.32 192.061 277.434L192.12 277.457C192.275 277.522 192.527 277.652 192.393 277.828C192.242 278.023 191.681 277.768 191.538 277.713L191.114 277.555V277.555C191.087 277.573 191.057 277.584 191.023 277.593C191.152 277.643 191.273 277.699 191.403 277.746L191.58 277.804C191.801 277.878 192.118 278.009 192.048 278.21C191.978 278.409 191.646 278.317 191.427 278.235L191.191 278.143C191.18 278.139 191.17 278.135 191.159 278.131L191.157 278.164C191.156 278.17 191.155 278.175 191.152 278.181C191.085 278.37 190.817 278.303 190.629 278.235L190.477 278.177C190.219 278.08 189.964 277.983 189.71 277.885L189.33 277.736L189.325 277.737C188.014 277.242 186.792 276.734 185.596 276.01C184.881 275.577 184.202 275.105 183.545 274.588C182.225 273.554 181.152 272.29 180.104 270.992C180.086 270.971 180.094 270.907 180.113 270.836C179.994 270.674 179.878 270.508 179.76 270.337C178.994 270.71 178.104 270.94 177.263 271.036C176.812 271.088 176.358 271.089 175.899 271.051C174.467 271.112 173.004 270.72 171.701 270.17C171.619 270.136 171.544 270.095 171.467 270.061C170.939 269.878 170.425 269.647 169.928 269.366C168.957 268.823 168.011 268.194 167.132 267.518C166.489 266.985 165.869 266.424 165.277 265.833C164.678 265.252 164.075 264.672 163.471 264.092C161.75 262.239 160.453 259.982 159.672 257.577C159.344 256.698 159.092 255.793 158.944 254.873C158.836 254.208 158.787 253.524 158.794 252.832C158.705 252.773 158.616 252.713 158.526 252.651C158.497 252.732 158.465 252.792 158.434 252.771L157.724 252.279C157.219 251.927 156.876 251.663 156.259 251.058C155.276 250.092 154.473 248.979 153.806 247.775C153.328 246.914 152.931 245.909 152.666 244.915C152.609 244.752 152.552 244.587 152.499 244.417C152.083 243.083 152 241.747 151.961 240.363C151.958 240.272 151.993 240.209 152.048 240.169C152.044 240.059 152.042 239.946 152.04 239.834C149.969 238.313 148.317 236.326 147.932 233.633C147.81 232.785 147.832 231.923 148.021 231.087L148.045 230.992V230.992C146.556 231.034 145.221 230.225 144.128 229.121C144.04 229.075 143.955 229.027 143.873 228.979C142.088 227.942 140.678 226.27 139.586 224.432C138.852 223.382 138.282 222.222 137.903 220.98C137.876 220.891 137.854 220.802 137.829 220.714C137.105 218.772 136.645 216.762 136.447 214.735C135.862 213.565 135.34 212.36 134.906 211.11C134.7 210.514 134.523 209.913 134.361 209.309L134.35 209.276L134.322 209.167L134.25 208.896C134.238 208.851 134.226 208.806 134.215 208.761C132.751 203.23 133 197.478 134.13 191.902C134.225 191.402 134.327 190.901 134.436 190.404L134.552 189.883V189.883C136.024 186.145 138.658 182.859 140.785 179.507C141.519 178.351 139.77 177.134 139.033 178.295C137.619 180.522 136.063 182.691 134.715 184.961C134.417 185.038 134.117 185.101 133.814 185.141C133.285 185.21 132.761 185.219 132.244 185.175C130.982 185.218 129.773 184.927 128.623 184.383C127.148 183.997 125.769 183.014 125.37 181.476C125.328 181.321 125.303 181.166 125.285 181.009C125.02 180.27 124.988 179.45 125.173 178.656C125.192 178.444 125.226 178.232 125.279 178.019C125.433 177.388 125.758 176.749 126.21 176.274C126.222 176.264 126.231 176.257 126.24 176.247C126.285 176.18 126.327 176.112 126.377 176.049C126.452 175.951 126.532 175.858 126.619 175.77C126.159 175.252 125.731 174.713 125.342 174.126C124.92 173.488 124.64 172.814 124.421 172.087C124.334 171.8 124.268 171.512 124.21 171.222C124.17 171.091 124.134 170.957 124.099 170.822C123.845 169.797 123.769 168.698 123.981 167.658C123.996 167.58 124.019 167.499 124.04 167.417C124.073 167.184 124.114 166.949 124.175 166.716C124.412 165.82 124.835 165.02 125.409 164.323C125.709 163.887 126.061 163.484 126.458 163.125C126.693 162.912 126.968 162.71 127.263 162.532C127.775 162.13 128.451 161.725 129.037 161.597C129.107 161.581 129.171 161.578 129.24 161.566C129.021 160.051 128.917 158.379 129.263 156.908C129.43 155.857 129.789 154.885 130.455 154.111C130.822 153.556 131.31 153.071 131.961 152.693L132.077 152.628L132.122 152.606C132.693 152.188 133.347 151.944 134.042 151.821C134.844 151.631 135.698 151.633 136.47 151.876C136.631 151.928 136.806 151.997 136.975 152.074C137.046 151.828 137.131 151.577 137.233 151.324C137.592 150.422 138.074 149.606 138.665 148.835C138.735 148.744 138.814 148.659 138.89 148.569C139.176 148.195 139.488 147.841 139.818 147.51C140.53 146.795 141.347 146.211 142.235 145.767C143.246 145.17 144.355 144.776 145.505 144.607L145.744 144.574V144.574C145.797 144.569 145.85 144.563 145.9 144.556C147.048 144.423 148.218 144.497 149.364 144.721C150.552 144.957 151.611 145.449 152.622 146.05C152.775 145.73 152.959 145.42 153.199 145.117C153.268 145.031 153.343 144.952 153.412 144.872C153.463 144.798 153.518 144.726 153.575 144.653C153.837 144.321 154.124 144.022 154.447 143.744C154.81 143.432 155.217 143.187 155.652 143.003C156.085 142.761 156.552 142.576 157.039 142.455ZM171.32 251.448C171.366 251.437 173.959 251.905 175.275 252.273L175.34 252.291C176.86 252.729 177.622 253.105 179.036 253.765C179.131 253.81 179.234 253.886 179.25 253.975C179.486 255.268 179.459 256.907 178.244 256.405C178.068 256.332 177.892 256.262 177.715 256.193L177.448 256.092L177.441 256.096C177.443 256.096 177.445 256.093 177.448 256.09C174.816 255.077 172.107 254.401 169.317 254.072C169.125 254.04 170.096 251.773 170.486 251.819C170.258 251.774 171.285 251.456 171.32 251.448ZM185.808 189.776C184.263 190.231 182.718 190.684 181.173 191.133C180.19 191.431 179.202 191.716 178.211 191.986C176.72 192.374 175.211 192.668 173.666 192.735C173.118 192.759 172.575 192.75 172.033 192.716C171.726 193.039 171.404 193.35 171.071 193.652L167.489 197.592V197.592C165.097 200.294 162.79 203.115 160.798 206.127C157.321 211.391 154.779 217.27 153.638 223.478C153.46 223.632 153.343 223.865 153.349 224.189C153.394 226.64 152.653 229.018 152.674 231.463C152.695 233.872 153.594 235.759 155.398 237.342C155.784 237.681 156.421 237.543 156.766 237.204C156.891 237.367 157.285 237.288 157.28 236.468C157.804 235.644 158.227 234.802 158.438 233.817C158.593 233.091 158.04 232.708 157.456 232.72C157.537 231.828 157.65 230.938 157.798 230.051C158.233 227.416 158.93 224.848 159.944 222.373C160.837 220.197 161.971 218.236 163.213 216.25C163.227 216.223 163.257 216.21 163.29 216.199L163.548 215.783V215.783C163.583 215.725 163.676 215.714 163.783 215.722C163.861 215.602 163.936 215.48 164.017 215.359C164.095 215.237 164.208 215.249 164.284 215.322C164.442 215.255 164.776 215.378 164.878 215.419C165.055 215.495 165.126 215.604 165.019 215.778C165.001 215.809 164.982 215.839 164.963 215.867C165.157 215.91 165.354 215.98 165.511 216.054C166.015 216.073 166.779 216.4 166.685 216.555C166.484 216.859 166.291 217.168 166.101 217.481C166.338 217.59 166.5 217.709 166.457 217.782C165.631 219.045 164.895 220.357 164.25 221.722C163.756 222.743 163.332 223.789 162.978 224.863C162.438 226.391 162.026 227.936 161.698 229.506C161.654 229.744 161.614 229.981 161.575 230.218C161.149 232.811 160.959 235.455 161.152 238.078L161.172 238.254C161.289 239.19 161.721 241.675 161.734 242.284C162.365 242.464 163.012 242.598 163.675 242.684C163.799 242.696 163.925 242.706 164.051 242.712C164.114 242.671 164.18 242.635 164.247 242.601C164.781 242.263 165.353 241.985 165.954 241.792C166.36 241.661 166.769 241.567 167.184 241.504L167.362 241.479C167.547 241.45 167.73 241.431 167.917 241.416C167.887 241.313 167.863 241.212 167.836 241.108C167.778 241.083 167.73 241.044 167.716 240.981C167.378 239.824 167.161 238.646 167.064 237.445C167.03 236.815 167.01 236.186 166.998 235.555C167.009 235.033 167.037 234.516 167.075 233.997C167.163 232.547 167.37 231.11 167.679 229.684C168.557 225.618 170.183 221.8 171.825 217.998C173.022 215.222 174.121 212.407 175.384 209.663C176.458 207.326 177.612 205.007 178.886 202.772C180.159 200.54 181.536 198.364 183.075 196.303C183.324 195.973 183.577 195.651 183.835 195.331C185.305 193.439 186.977 191.8 188.733 190.171C188.8 190.107 188.946 190.137 189.076 190.211L189.361 189.955C189.409 189.913 189.456 189.871 189.505 189.829C189.549 189.789 189.614 189.831 189.651 189.871C189.774 189.775 189.898 189.682 190.022 189.589C190.106 189.491 190.195 189.396 190.281 189.299C188.794 189.493 187.303 189.651 185.808 189.776ZM201.103 168.945C199.87 168.924 198.669 169.107 197.501 169.504C197.012 169.669 196.527 169.848 196.05 170.046C197.356 170.823 198.492 171.916 199.344 173.255C200.264 174.704 197.851 175.84 196.943 174.412C196.068 173.035 194.716 172.103 193.209 171.671C192.94 171.892 192.684 172.126 192.444 172.376C192.135 172.735 191.852 173.114 191.596 173.521C191.037 174.405 190.582 175.533 190.344 176.61C190.281 177.185 190.263 177.767 190.292 178.358C190.3 178.492 190.308 178.628 190.32 178.764C190.555 181.523 191.811 184.02 193.57 186.111L193.623 186.102V186.102C194.696 185.24 195.844 184.469 197.046 183.792C197.947 182.914 198.897 182.08 199.89 181.301C202 179.645 204.293 178.247 206.716 177.135L206.996 177.008C207.566 176.746 208.146 176.502 208.731 176.273L209.082 176.139L209.087 176.138L208.977 175.754V175.754C208.493 174.259 207.634 172.945 206.619 171.771C205.856 170.884 204.793 170.028 203.671 169.393L203.665 169.391C203.176 169.22 202.673 169.097 202.163 169.012L201.971 168.982L201.103 168.945ZM168.733 172.433C166.216 172.65 163.747 173.124 161.309 173.776C159.721 174.231 158.155 174.746 156.608 175.32C155.56 175.703 154.546 176.158 153.562 176.673L154.378 177.771C155.741 179.598 157.126 181.407 158.675 183.086C159.474 183.95 160.317 184.758 161.213 185.517C161.825 186.066 162.478 186.559 163.175 186.995C163.367 187.158 163.567 187.309 163.77 187.453C164.4 187.82 165.061 188.122 165.765 188.343C166.348 188.624 166.945 188.854 167.558 189.039L167.788 189.106L169.891 189.503C170.002 189.513 170.113 189.524 170.224 189.532L170.392 189.544L170.702 189.553L170.904 189.39C170.938 189.363 170.972 189.336 171.007 189.31C171.064 189.265 171.12 189.322 171.142 189.367C171.151 189.385 171.147 189.412 171.139 189.441L171.397 189.234V189.234C171.926 189.344 172.478 189.408 173.058 189.412C173.32 189.413 173.581 189.403 173.841 189.388L173.879 189.404C173.886 189.407 173.892 189.411 173.899 189.415L174.177 189.364V189.364C176.171 189.196 178.112 188.585 180.005 187.877C182.722 187.095 185.434 186.284 188.147 185.494C188.199 185.479 188.224 185.499 188.231 185.536L188.398 185.489V185.489C188.64 185.418 189.003 185.776 188.844 185.96C189.01 186.022 189.177 186.124 189.303 186.204L189.365 186.187C188.849 185.512 188.414 184.787 188.057 184.016L187.543 182.707V182.707C187.377 182.215 187.237 181.683 187.132 181.153C187.069 180.912 187.015 180.687 186.979 180.488C186.944 180.299 186.913 180.11 186.886 179.92C186.325 179.8 185.762 179.708 185.193 179.646C183.625 179.737 182.06 179.827 180.493 179.92C179.58 180.121 178.672 180.354 177.773 180.623C176.749 180.905 175.733 181.211 174.723 181.541C174.628 181.57 174.432 181.47 174.299 181.337L173.867 181.478V181.478C173.642 181.549 173.317 181.132 173.604 180.982C173.706 180.918 173.808 180.857 173.911 180.797L174.065 180.708L173.973 180.736C173.942 180.745 173.901 180.744 173.854 180.736C173.616 180.812 173.378 180.888 173.142 180.96C172.843 181.054 172.839 180.639 173.037 180.505L173.133 180.448C172.931 180.368 172.715 180.088 172.921 179.946L172.949 179.929C173.046 179.868 173.142 179.815 173.24 179.757C173.226 179.725 173.22 179.693 173.225 179.663L172.803 179.796V179.796C172.764 179.808 172.902 179.498 172.982 179.427L172.996 179.417L173.192 179.316C173.207 179.222 173.339 178.995 173.394 178.966C174.11 178.589 174.779 178.245 175.488 177.946C175.516 177.894 175.552 177.853 175.597 177.834C176.038 177.64 176.489 177.468 176.942 177.31C176.965 177.257 176.99 177.217 177.027 177.208C178.156 176.851 179.308 176.606 180.486 176.473C180.712 176.453 180.939 176.436 181.167 176.424C181.603 176.394 182.041 176.376 182.481 176.38C183.577 176.369 184.666 176.457 185.746 176.647L185.995 176.693C186.267 176.741 186.536 176.795 186.805 176.857C186.849 176.386 186.926 175.917 187.034 175.451C187.047 175.362 187.064 175.275 187.083 175.188L186.801 175.082V175.082C186.765 175.197 186.667 175.298 186.586 175.267C184.541 174.37 182.428 173.696 180.248 173.249C179.019 172.953 177.778 172.738 176.52 172.598C175.891 172.515 175.259 172.452 174.626 172.397C174.313 172.388 174 172.38 173.684 172.384C172.032 172.246 170.381 172.263 168.733 172.433ZM229.509 165.664C229.357 166.086 229.196 166.506 229.02 166.924C228.165 168.952 227.054 170.912 225.714 172.689C226.133 172.611 226.555 172.551 226.976 172.514C227.702 172.452 228.423 172.443 229.134 172.485C229.182 172.43 229.239 172.397 229.295 172.423L229.495 172.513V172.513C231.029 172.641 232.514 173.012 233.908 173.616L233.856 173.456C233.847 173.429 233.838 173.403 233.828 173.376C233.79 173.05 233.737 172.727 233.668 172.409C233.068 170.567 232.109 168.944 231.054 167.317C231.034 167.285 231.036 167.239 231.049 167.19C230.569 166.653 230.057 166.142 229.509 165.664ZM227.142 150.751C226.612 150.95 226.093 151.177 225.583 151.435C224.596 151.772 223.662 152.218 222.782 152.771C221.559 153.473 220.389 154.243 219.23 155.045C216.979 156.602 214.934 158.426 213.148 160.499C213.033 160.626 212.923 160.754 212.814 160.882C212.419 161.374 212.04 161.881 211.689 162.408C211.326 162.983 210.959 163.559 210.596 164.136C210.146 164.819 209.603 165.462 209.214 166.183C209.135 166.33 209.072 166.487 209.016 166.644L209.331 166.692V166.692C209.595 166.73 209.638 167.204 209.38 167.181C209.291 167.173 209.208 167.158 209.123 167.141C209.165 167.18 209.197 167.22 209.21 167.258C209.248 167.381 209.183 167.572 209.02 167.555C208.946 167.55 208.87 167.536 208.794 167.52C208.788 167.605 208.787 167.69 208.801 167.768C208.816 167.771 208.83 167.774 208.846 167.774C209.03 167.803 209.404 168.013 209.484 168.188C209.547 168.323 209.454 168.497 209.292 168.483C209.171 168.472 209.049 168.446 208.93 168.413C209.016 168.471 209.088 168.536 209.105 168.601C209.137 168.72 209.063 168.909 208.912 168.896C208.631 168.871 208.396 168.798 208.192 168.689C208.156 168.76 208.097 168.822 208.039 168.817L207.931 168.804V168.804C207.964 168.825 207.995 168.848 208.024 168.87L208.069 168.903C208.934 169.552 209.723 170.302 210.398 171.14C210.417 171.109 210.442 171.081 210.473 171.045C210.673 170.803 210.881 170.565 211.091 170.332L211.152 170.254V170.254L211.216 170.176L210.702 170.457L210.711 170.44C210.741 170.384 210.831 170.196 210.877 170.131L210.889 170.117C211.518 169.307 212.235 168.586 213.036 167.958C213.542 167.482 214.087 167.057 214.672 166.683C216.051 165.709 217.49 164.898 218.978 164.118C219.2 163.999 219.421 163.875 219.644 163.758C219.708 163.722 219.726 163.749 219.724 163.798L219.841 163.739V163.739C220.048 163.628 220.493 163.947 220.377 164.155C220.48 164.212 220.584 164.278 220.675 164.341L220.741 164.387L220.801 164.357C220.977 164.265 221.346 164.5 221.585 164.67L221.761 164.799C221.896 164.899 222.161 165.108 221.909 165.255L221.592 165.431V165.431C221.615 165.497 221.597 165.56 221.499 165.619C221.388 165.679 221.28 165.742 221.173 165.806C221.254 165.854 221.334 165.905 221.413 165.957L221.531 166.035C221.672 166.135 222.002 166.35 221.775 166.513L221.746 166.532L221.445 166.706C221.504 166.792 221.51 166.884 221.378 166.962C219.613 167.944 217.912 169.028 216.272 170.206C215.063 171.195 213.743 172.009 212.313 172.645C212.197 172.707 211.896 172.57 211.752 172.404L211.541 172.51C211.505 172.528 211.47 172.545 211.434 172.562L211.399 172.577V172.577C211.815 173.272 212.17 174.044 212.428 174.806C212.454 174.875 212.478 174.946 212.498 175.016C212.788 174.938 213.075 174.865 213.365 174.796C215.377 174.318 217.443 174.01 219.524 173.88C220.257 173.24 220.951 172.559 221.603 171.839C221.801 171.619 221.995 171.394 222.187 171.167C223.325 169.747 224.309 168.207 225.135 166.586C225.899 165.085 226.514 163.512 226.978 161.895C227.375 160.386 227.649 158.841 227.783 157.274C227.907 155.841 227.793 154.489 227.63 153.06C227.62 152.824 227.599 152.59 227.575 152.356L227.555 152.257V152.257L227.543 152.21C227.427 151.72 227.287 151.233 227.142 150.751ZM211.134 171.794C211.078 171.825 211.019 171.858 210.959 171.888C211.011 171.962 211.059 172.035 211.108 172.11L211.112 172.107V172.107L211.324 171.867V171.867C211.267 171.853 211.2 171.828 211.134 171.794ZM226.098 147.102C226.538 146.841 226.888 146.742 227.15 146.808C226.798 146.899 226.448 146.998 226.098 147.102Z" fill="black"/>
<path fill-rule="evenodd" clip-rule="evenodd" d="M230.479 261.94C228.586 261.543 226.796 260.631 225.368 259.31C224.871 258.851 224.665 258.308 224.656 257.778C224.645 257.184 224.891 256.598 225.294 256.161C225.698 255.724 226.252 255.443 226.834 255.429C227.34 255.416 227.878 255.596 228.367 256.084L228.469 256.181C229.32 256.98 230.349 257.576 231.452 257.879C232.516 258.172 233.65 258.193 234.758 257.859C236.87 257.223 238.143 255.788 239.435 253.918C239.594 253.683 239.752 253.441 239.911 253.196C240.001 252.984 240.151 252.831 240.331 252.732C240.531 252.622 240.772 252.582 241.006 252.619C241.232 252.654 241.448 252.76 241.609 252.924C241.763 253.079 241.871 253.286 241.895 253.543C242.049 255.208 241.458 256.828 240.448 258.198C239.327 259.72 237.694 260.93 236.062 261.547C234.263 262.227 232.323 262.327 230.479 261.94V261.94ZM232.226 235.494C234.424 236.336 237.95 238.59 236.364 241.958C234.335 245.042 230.178 242.687 228.152 241.648C226.31 240.892 224.952 243.945 226.707 244.9C241.288 252.066 243.349 233.794 232.969 233.899C231.827 233.91 231.639 235.217 232.226 235.494ZM207.184 228.629C206.909 225.877 210.931 224.509 211.831 227.118C212.637 229.455 212.606 231.743 211.916 234.105C211.257 236.361 208.478 235.87 207.938 234.023C207.215 231.547 207.355 230.341 207.184 228.629ZM238.438 221.698C238.877 220.839 239.615 220.173 240.665 220.282C243.946 220.624 243.833 225.211 243.13 227.561C242.748 228.837 240.881 229.483 239.825 228.613C238.104 227.194 236.816 223.967 238.315 221.988C238.348 221.893 238.387 221.797 238.438 221.698ZM208.594 216.111L209.071 215.935C210.545 215.395 212.392 214.797 213.692 215.824C214.381 216.369 214.797 217.538 214.142 218.299C212.991 219.637 211.421 219.485 209.819 219.872C208.499 220.192 207.258 220.646 206.04 221.246C203.368 222.564 201.339 224.452 199.226 226.504C198.948 226.773 198.552 226.428 198.649 226.105C199.544 223.133 201.83 220.409 204.279 218.556C205.586 217.567 207.052 216.677 208.594 216.111ZM233.433 210.33L233.824 210.338C238.079 210.448 243.716 211.188 246.389 214.858C246.567 215.413 246.511 215.549 246.462 215.64L246.445 215.671C246.405 215.748 246.381 215.85 246.148 215.972C246.077 215.968 246.004 215.963 245.931 215.958C244.999 215.887 244.236 215.694 243.494 215.485L242.689 215.256C241.755 214.992 240.817 214.745 239.846 214.613C237.774 214.332 235.68 214.249 233.593 214.381C233.141 214.41 232.687 214.338 232.304 214.143C231.941 213.959 231.636 213.667 231.443 213.24C231.194 212.688 231.155 212.242 231.371 211.663C231.533 211.229 231.818 210.896 232.173 210.67C232.536 210.44 232.974 210.322 233.433 210.33Z" fill="black"/>
<g clip-path="url(#clip1_84_24383)">
<rect width="322.657" height="369.711" transform="translate(10.4502 123.257) rotate(-10.5294)" fill="#E7ECED"/>
<path fill-rule="evenodd" clip-rule="evenodd" d="M301.889 319.492C294.598 301.841 278.201 290.141 258.393 286.476C254.466 285.126 249.417 277.138 244.347 276.446C243.534 276.335 245.118 278.126 244.697 278.328C243.197 279.051 241.436 279.425 239.404 278.199C235.772 276.007 233.289 268.092 230.714 264.785C217.132 247.343 193.581 259.532 194.204 281.489C192.155 283.442 189.109 285.394 186.799 287.09C184.421 288.837 182.69 292.319 180.201 293.912C177.979 295.333 173.892 295.378 171.629 296.678C161.221 302.655 152.706 309.338 147.17 320.702C146.003 323.098 144.728 326.015 143.706 328.407C137.962 338.183 134.639 348.561 131.844 359.552C124.285 391.693 126.841 425.249 129.598 457.853C130.712 463.44 129.884 479.661 135.877 481.325C135.612 481.727 135.858 482.389 136.467 482.27C150.373 479.539 164.505 478.203 178.672 478.079C185.507 478.019 192.388 478.4 199.178 477.411C213.153 474.713 226.66 469.776 241.048 469.398C257.848 466.275 278.174 461.991 296.73 457.798C314.073 453.88 331.916 452.133 348.615 445.955C349.94 445.485 350.298 443.695 349.789 442.554C346.394 435.552 343.989 428.144 341.45 420.803C340.776 415.918 339.431 410.937 336.802 406.758C326.462 377.173 314.837 348.032 301.889 319.492Z" fill="white"/>
<path fill-rule="evenodd" clip-rule="evenodd" d="M303.693 360.571C303.657 362.43 303.473 364.316 303.102 366.14C302.744 367.9 302.02 369.552 301.634 371.297C301.582 371.532 301.462 371.725 301.304 371.884L301.442 372.314V372.314L301.576 372.744C302.47 375.649 303.406 378.539 304.291 381.446L304.729 382.901C306.538 388.977 308.72 394.953 310.673 400.985C312.586 406.893 314.513 412.797 316.494 418.683C318.537 424.751 320.596 430.808 322.803 436.819C323.734 439.358 324.685 441.891 325.655 444.419L326.4 446.353C330.415 446.563 332.46 451.726 328.916 454.431C327.306 455.655 324.985 455.864 323.26 454.731C321.467 453.55 320.913 450.921 320.192 449.003L319.509 447.224C314.389 433.84 309.576 420.233 305.931 406.373C304.992 402.793 304.093 399.203 303.272 395.595C302.499 392.202 301.93 388.772 301.241 385.363L301.051 384.434C300.292 380.803 299.682 377.151 299.1 373.487C299.028 373.041 298.965 372.593 298.905 372.142C298.748 372.015 298.623 371.854 298.552 371.688L298.459 371.468C298.223 370.902 298.238 370.185 298.612 369.679C298.345 367.16 298.141 364.631 297.75 362.138C297.718 361.933 298.012 361.884 298.066 362.079C298.623 364.16 299.346 366.217 300.068 368.27C301.871 366.172 302.915 363.071 303.403 360.547C303.438 360.364 303.698 360.379 303.693 360.571ZM235.195 271.161C235.846 272.705 236.81 274.02 237.992 275.191C238.556 275.751 239.172 276.255 239.871 276.642C240.47 276.972 241.114 277.142 241.736 277.411C242.516 277.135 243.414 277.284 244.088 277.771L243.838 276.922C243.758 276.648 244.211 276.506 244.314 276.767C249.048 288.638 253.569 300.558 257.805 312.614L259.67 317.939L261.422 322.939C264.337 331.27 267.208 339.606 269.775 348.066C273.2 359.357 276.426 370.717 279.365 382.146C282.323 393.657 284.977 405.233 287.494 416.848C288.128 419.777 288.767 422.701 289.403 425.629L289.346 421.998C289.286 418.366 289.215 414.734 289.058 411.104C288.501 398.113 287.567 385.099 285.895 372.202C284.366 360.4 281.937 348.526 276.85 337.697C275.569 334.972 274.129 332.324 272.513 329.783C270.944 327.312 269.021 325.109 267.379 322.692C265.469 319.879 264.53 317.066 264.608 313.641C264.677 310.657 265.233 307.759 264.873 304.768C264.209 299.216 261.436 294.234 258.022 289.9C257.122 288.759 256.189 287.64 255.228 286.538C252.318 283.21 249.152 280.07 245.918 277.096C245.744 276.937 246.002 276.679 246.181 276.801C248.978 278.698 251.987 280.514 254.587 282.669C255.85 283.718 257.094 284.796 258.29 285.917C269.093 285.721 279.31 290.576 287.066 298.054C295.869 306.539 301.59 317.657 306.359 328.767C311.661 341.113 316.53 353.662 321.548 366.127C326.742 379.026 331.922 391.927 337.132 404.819C339.72 411.219 342.308 417.619 344.893 424.023C346.204 427.265 347.546 430.492 348.921 433.71C349.627 435.36 350.359 437.001 351.038 438.661C351.801 440.533 351.659 441.848 350.607 443.524C350.219 444.145 349.45 444.279 348.794 444.109L348.589 444.056L348.39 444.001C347.576 443.773 346.92 443.502 346.304 442.771C345.626 441.97 345.36 440.99 344.999 440.026C344.334 438.25 343.672 436.475 343.006 434.697C342.011 432.038 340.976 429.395 339.931 426.754L334.698 413.559C333.302 410.04 331.906 406.523 330.506 403.007C325.503 390.435 320.497 377.866 315.492 365.296C310.686 353.228 306.149 341.02 301.013 329.087L300.723 328.415L300.429 327.744C295.911 317.475 290.457 307.742 282.373 299.831C276.152 293.747 268.157 288.768 259.521 287.101C260.24 287.812 260.939 288.543 261.617 289.296C265.869 294.02 269.427 299.905 270.048 306.355C270.351 309.507 269.739 312.774 270.431 315.879C271.051 318.637 273.222 320.756 274.858 322.952C278.57 327.927 281.601 333.383 283.967 339.119C288.717 350.638 291.001 362.973 292.394 375.303C293.909 388.706 294.574 402.264 294.967 415.742C295.169 422.655 295.014 429.577 295.194 436.483C295.281 439.888 295.176 443.321 295.16 446.729L295.152 448.357C295.147 449.26 295.135 450.162 295.094 451.06L295.066 451.598L295.083 451.691C295.195 452.326 295.119 452.884 294.918 453.354C294.763 454.652 294.511 455.936 294.093 457.201C293.878 457.848 293.47 458.265 292.982 458.48C292.686 459.752 291.69 460.873 290.299 461.126L271.998 464.455C261.367 466.388 250.732 468.292 240.098 470.208C237.415 470.693 234.728 471.14 232.037 471.568C229.514 471.965 227.05 472.11 224.51 472.259C221.64 472.428 219.752 470.724 219.65 467.844C219.628 467.21 219.614 466.577 219.595 465.944C219.071 466.233 218.39 466.269 217.859 465.914L217.361 465.58C216.669 465.11 216.041 464.64 215.527 463.937C214.997 463.215 214.531 462.435 214.042 461.688C212.99 460.08 211.956 458.463 210.939 456.834C208.904 453.577 206.866 450.305 204.921 446.993C201.07 440.435 197.493 433.715 194.194 426.861C188.309 414.631 183.345 401.974 179.291 389.025L178.324 385.939L178.04 385.028C176.483 380.006 175.006 374.888 174.294 369.721C173.846 366.486 173.742 363.162 174.383 359.944C174.975 356.976 176.242 354.296 177.406 351.525L177.538 351.205L177.671 350.878C178.673 348.372 179.366 345.817 178.916 343.082C178.46 340.307 177.155 337.767 175.774 335.346L175.431 334.75L175.202 334.355C172.293 329.363 169.134 324.495 168.77 318.541C168.239 309.773 172.148 301.9 177.693 295.358C172.095 297.589 166.766 300.932 162.225 304.758C156.863 309.281 152.301 314.782 148.589 320.723C141.576 331.951 137.435 344.628 134.503 357.467C131.434 370.904 129.865 384.678 129.312 398.439C128.756 412.279 129.239 426.145 130.373 439.946C130.937 446.815 131.651 453.673 132.458 460.517C132.873 464.024 133.345 467.525 133.72 471.034C134.094 474.539 134.626 478.07 134.407 481.59C134.305 483.231 131.679 483.883 131.073 482.21C129.725 478.472 129.161 474.452 128.611 470.515L128.561 470.157C128.012 466.236 127.516 462.308 127.061 458.373C126.133 450.329 125.39 442.262 124.876 434.179C123.066 405.805 124.109 377.052 131.512 349.469C134.996 336.477 140.16 323.524 148.74 313.016C152.826 308.017 157.683 303.73 163.132 300.266C168.005 297.167 173.169 295.17 178.765 294.132C181.172 291.46 183.836 289.025 186.549 286.865C186.712 286.733 186.946 286.933 186.823 287.112C186.759 287.202 186.698 287.294 186.634 287.381C186.978 287.34 187.36 287.434 187.737 287.708C189.058 288.661 190.261 289.938 191.375 291.288C192.941 292.639 194.457 294.053 196.017 295.388C198.514 297.525 201.053 299.616 203.613 301.684C207.912 305.159 212.312 308.534 216.838 311.718L217.594 312.246C219.936 313.878 222.378 315.898 225.003 317.045L225.143 317.105C226.246 317.563 226.965 317.55 227.626 316.437C228.226 315.424 228.673 314.294 229.147 313.212L229.257 312.963C231.688 307.503 233.844 301.909 235.678 296.221C236.515 293.632 237.284 291.021 237.985 288.395L238.194 287.606C238.572 286.16 239.008 284.73 239.27 283.265C239.331 282.921 239.388 282.578 239.444 282.239C237.47 281.412 235.643 279.168 234.785 277.304C233.894 275.369 233.766 273.236 234.337 271.208C234.445 270.827 235.042 270.805 235.195 271.161ZM163.748 369.822C164.94 377.589 166.229 385.347 167.3 393.13L167.664 395.787C168.348 396.314 168.816 396.981 168.736 398.03C168.704 398.432 168.464 398.835 168.108 399.034L168.445 401.505C169.954 412.625 171.366 423.738 172.255 434.944C173.368 448.968 174.251 463.011 175.136 477.052C175.26 479.04 174.195 480.833 172.039 480.939C169.858 481.047 168.651 479.355 168.571 477.373C168.261 469.596 167.908 461.821 167.42 454.05L166.864 445.198C166.172 434.131 165.512 423.06 165.064 411.984C164.877 407.354 164.715 402.723 164.556 398.09L164.261 397.827C163.058 396.748 161.827 395.702 160.605 394.646C158.256 392.609 155.936 390.586 153.725 388.407C153.615 388.298 153.757 388.081 153.9 388.153C156.682 389.505 159.357 391.008 162.051 392.539L164.41 393.886C164.136 385.883 163.85 377.878 163.435 369.881C163.424 369.681 163.714 369.612 163.748 369.822ZM185.201 289.387C183.987 291.049 182.734 292.687 181.508 294.342L181.059 294.951L180.613 295.562C178.466 298.519 176.448 301.557 174.916 304.899C172.105 311.037 171.059 318.078 173.88 324.409C176.218 329.653 180.167 334.067 182.026 339.542C182.957 342.285 183.285 345.154 182.719 348.014C182.14 350.931 180.841 353.58 179.741 356.319C177.352 362.271 177.977 368.201 179.459 374.307C181.009 380.683 182.946 386.99 185.046 393.204C189.298 405.795 194.464 418.077 200.483 429.926C203.496 435.86 206.818 441.598 210.135 447.362C211.786 450.232 213.603 452.995 215.455 455.737C216.431 457.18 217.423 458.611 218.425 460.038C217.753 457.885 217.333 455.625 216.798 453.462C216.031 450.362 215.215 447.277 214.418 444.185C212.798 437.911 211.225 431.623 209.694 425.327C204.24 402.873 199.11 380.339 194.954 357.607C192.876 346.239 190.996 334.834 189.375 323.393C188.611 318.005 188.062 312.583 187.471 307.171L187.343 306.011C186.807 301.155 186.339 296.274 186.185 291.389C185.879 290.942 185.6 290.484 185.367 290.004L185.282 289.823L185.319 289.822C185.258 289.68 185.219 289.534 185.201 289.387ZM194.301 267.5C194.307 267.363 194.496 267.339 194.552 267.453C195.9 270.093 196.178 273.22 195.986 276.163C195.884 277.757 195.611 279.337 195.214 280.885L195.075 281.426C194.734 282.745 194.327 284.114 193.364 285.075C192.962 285.476 192.141 285.649 191.618 285.4L191.35 285.265C191.306 285.242 191.262 285.218 191.219 285.193C190.722 284.913 190.362 284.156 190.462 283.594C190.722 282.144 191.696 280.934 192.273 279.579C192.783 278.374 193.201 277.126 193.504 275.853C194.157 273.099 194.16 270.303 194.301 267.5Z" fill="black"/>
<path fill-rule="evenodd" clip-rule="evenodd" d="M195.084 157.927C207.586 155.603 223.714 158.878 225.012 158.763L225.046 158.758C225.717 158.633 228.711 160.144 234.026 163.291L230.87 173.875L231.342 174.184C233.602 175.667 235.551 177.039 237.089 178.121C249.648 186.952 259.421 228.975 259.681 244.215C259.941 259.455 258.022 274.771 236.576 278.757C215.13 282.744 188.874 274.278 184.452 270.944C181.504 268.722 178.513 267.95 175.48 268.63C175.325 268.495 175.171 268.36 175.018 268.225L174.557 268.245C170.216 268.418 167.034 268.157 165.011 267.461C161.06 266.102 155.153 256.195 154.718 253.852C154.286 251.532 145.282 235.746 144.832 233.982L144.821 233.933C144.544 232.44 135.603 227.001 135.198 224.822C134.792 222.642 133.272 223.062 133.389 215.094L133.419 212.754C133.543 204.271 134.245 190.132 145.422 181.968C157.704 172.995 182.455 160.274 195.084 157.927Z" fill="white"/>
<path fill-rule="evenodd" clip-rule="evenodd" d="M143.284 182.051C148.681 173.66 184.807 155.518 204.558 154.269L205.152 154.237C206.73 154.146 208.304 154.16 209.878 154.283C214.934 154.515 220.259 155.299 224.795 157.418C228.573 159.139 239.83 161.005 237.861 167.711C239.419 169.681 240.351 172.3 239.972 174.596C240.012 175.357 239.91 176.084 239.749 176.848C242.887 180.026 245.6 183.774 247.905 187.39C252.491 196.717 256.111 206.637 258.228 216.629C262.609 235.546 264.753 258.716 250.441 274.135C241.862 283.815 226.198 286.998 213.125 279.403C212.345 278.765 208.956 277.28 209.894 276.735C210.251 276.995 210.615 277.246 210.984 277.489C210.964 277.458 210.955 277.425 210.954 277.388L210.61 277.176C209.961 276.766 209.105 276.156 209.949 276.15C209.993 276.185 210.039 276.214 210.086 276.249C210.278 276.32 210.426 276.386 210.543 276.447L210.603 276.479L210.583 276.465C210.019 276.05 209.642 275.59 210.406 275.787L210.508 275.815C210.882 276.086 211.259 276.343 211.64 276.59C211.628 276.555 211.627 276.517 211.639 276.474L211.283 276.239C210.934 276.005 210.979 275.995 211.08 275.735C210.29 274.972 211.557 275.277 211.703 275.604C212.402 275.295 213.3 276.55 213.803 276.63C237.421 288.682 264.787 269.007 256.07 224.812L255.902 223.947C253.128 209.813 249.231 195.48 240.994 183.75C240.195 182.621 239.335 181.538 238.418 180.506C237.773 179.724 237.099 178.971 236.389 178.247C234.81 178.411 233.222 178.411 231.626 178.251C231.082 178.217 230.541 178.167 229.996 178.092C222.566 179.897 215.31 181.706 207.862 183.528L205.538 184.111C199.237 185.706 192.765 187.589 188.353 192.491C183.972 197.021 185.265 204.109 181.677 208.856C176.291 214.185 176.948 217.967 176.907 224.354C177.859 228.986 182.336 235.141 176.788 238.197C178.049 239.434 176.532 239.009 176.33 238.53C176.319 238.535 176.309 238.54 176.3 238.542C177.496 240.029 175.996 239.231 175.782 238.722C175.708 238.715 175.629 238.678 175.546 238.621C176.711 239.903 175.075 239.158 175.112 238.878C172.887 236.539 169.248 236.788 166.869 237.959C166.856 238.06 166.746 238.089 166.667 238.052C156.422 242.35 163.286 263.945 173.828 259.775C174.278 259.592 174.309 259.819 174.406 259.824C174.03 259.207 174.792 259.345 174.811 259.485L174.854 259.475C174.887 259.466 174.873 259.465 174.9 259.469C174.403 258.157 176.144 259.868 176.05 259.969C176.088 259.936 176.133 259.913 176.173 259.9L176.102 259.78C175.761 259.214 175.827 259.463 175.764 259.114C175.513 258.716 175.535 258.906 175.523 258.619C176.039 258.039 176.48 259.423 176.701 259.49C176.267 259.073 176.468 258.63 176.841 258.83C180.269 263.557 184.357 267.836 189.183 270.909C189.699 271.18 190.219 271.445 190.752 271.687C192.785 272.886 195.65 273.367 197.539 274.413C197.543 274.436 197.538 274.466 197.526 274.497L197.57 274.524V274.524L197.614 274.553L198.235 274.72C198.429 274.832 198.609 274.963 198.776 275.114C198.949 275.252 199.108 275.411 199.251 275.584C199.347 275.808 199.248 275.928 199.006 275.869C198.902 275.854 198.797 275.833 198.693 275.815C198.7 275.822 198.703 275.827 198.71 275.831C198.751 275.874 199.062 276.337 198.796 276.301L198.765 276.295C198.618 276.271 198.471 276.24 198.327 276.212C198.523 276.381 198.708 276.569 198.87 276.726C199.034 276.843 199.149 276.996 199.218 277.179C199.232 277.287 199.182 277.342 199.073 277.348C198.901 277.325 198.731 277.299 198.561 277.27L198.623 277.348C198.776 277.548 199.006 277.89 198.698 277.819C198.441 277.789 198.191 277.746 197.938 277.694C197.926 277.737 197.89 277.758 197.805 277.737C197.01 277.61 196.229 277.42 195.468 277.165C194.78 276.836 194.088 276.517 193.398 276.192C192.761 275.955 192.137 275.675 191.53 275.342C187.574 273.717 183.944 271.393 180.891 268.621C177.45 272.937 168.618 271.066 163.028 269.227C158.078 267.575 155.46 263.306 154.083 258.434C151.895 251.938 146.019 250.667 143.677 235.955C143.669 235.96 143.661 235.961 143.649 235.963C143.44 235.942 143.233 235.899 143.033 235.832C142.829 235.778 142.634 235.704 142.445 235.606L142.189 235.362V235.362C142.072 235.323 141.965 235.279 141.881 235.231L141.853 235.287C141.76 235.453 141.8 235.222 141.799 235.177L141.355 234.761C140.303 233.77 139.142 232.655 138.201 231.765L138.185 231.812C138.174 231.846 138.169 231.871 138.179 231.879C135.916 229.644 133.66 226.856 132.636 223.942C131.655 221.732 131.428 219.31 131.51 217.079C132.177 209.197 135.772 190.972 143.284 182.051ZM211.023 276.755L210.892 276.676L211.014 276.781C211.077 276.835 211.141 276.882 211.237 276.925C211.228 276.906 211.225 276.887 211.223 276.864C211.158 276.831 211.091 276.794 211.023 276.755ZM205.173 158.053C191.865 159.361 179.518 164.643 167.668 170.461L166.852 170.869C160.122 174.219 152.945 177.441 147.746 182.9C140.55 190.89 138.118 201.924 136.092 212.071C134.094 219.702 137.252 227.3 143.139 231.275C142.752 226.31 142.756 221.419 143.264 216.475C143.416 215.689 143.154 215.489 143.756 215.278C147.042 227.739 144.161 237.932 156.079 251.208C161.355 257.537 157.728 263.559 169.611 265.197L169.936 265.256C172.431 265.703 175.107 265.925 177.299 265.008L177.032 264.713C176.76 264.409 176.666 264.255 176.942 264.051C176.931 264.036 176.917 264.022 176.901 264.004C176.57 263.586 176.245 263.161 175.93 262.728C175.844 262.776 175.756 262.815 175.666 262.858C175.749 262.961 175.778 263.074 175.613 263.145C175.036 263.471 174.42 263.673 173.766 263.754L173.625 263.769C172.886 263.86 172.401 263.813 171.966 263.765C171.825 263.768 171.684 263.772 171.545 263.769C170.165 263.721 168.624 263.234 167.578 262.662C156.137 258.706 153.486 238.491 165.89 234.228C163.809 221.577 165.849 199.202 173.561 185.345C180.496 172.629 204.145 163.28 221.531 161.795C221.795 161.831 222.059 161.868 222.324 161.906C225.001 161.651 227.729 162.358 230.466 162.413C228.31 161.346 225.988 160.8 223.627 160.408C218.72 158.531 213.398 158.011 208.327 157.889C207.27 157.828 206.219 157.882 205.173 158.053ZM167.188 244.461C167.804 243.961 167.793 244.335 167.931 244.201C172.789 242.882 178.912 246.214 182.339 249.303C182.163 249.57 181.449 249.009 181.326 248.922C181.315 248.939 181.3 248.953 181.284 248.962L181.381 249.056C182.797 250.453 180.231 248.976 179.951 248.626C179.918 248.652 179.884 248.67 179.84 248.669C180.048 248.809 180.668 249.159 180.82 249.461L180.984 249.553C182.538 250.453 182.588 251.338 180.762 249.989C180.812 250.058 180.839 250.125 180.824 250.186L180.883 250.211C181.729 250.595 182.616 251.94 180.773 250.733C181.139 251.797 179.033 250.001 178.98 250.026C175.583 248.248 170.796 246.795 167.02 247.182L166.89 247.191C166.191 247.231 165.83 247.088 165.987 246.597C165.109 246.553 165.229 246.103 165.63 246.042C164.964 245.762 165.429 245.29 165.8 245.372C165.441 244.761 166.471 245.021 166.541 244.913C166.892 244.062 167.142 244.671 167.188 244.461ZM149.3 205.778C151.508 204.47 158.99 205.768 159.07 209.314C158.883 210.166 157.869 210.823 157.014 210.521L155.88 210.031C153.908 209.182 152.135 208.446 150.062 207.771C148.942 207.453 148.3 206.455 149.3 205.778ZM161.83 198.157L160.804 197.732C155.265 195.416 147.373 191.815 160.696 194.582C162.219 194.925 164.161 194.935 165.181 196.136C166.851 198.389 163.699 199.147 161.83 198.157ZM159.688 183.547C159.012 182.117 164.271 182.966 165.793 183.164L166.027 183.206C167.52 183.467 169.21 183.652 170.269 184.703C171.557 186.186 169.641 186.899 168.275 186.375C165.454 185.198 162.466 184.47 159.688 183.547ZM170.924 174.209C167.585 171.693 175.553 173.217 176.815 173.817L176.852 173.835C177.79 174.265 177.856 175.556 177.145 176.07C174.934 176.525 172.957 174.978 170.924 174.209ZM182.936 168.54C177.934 166.188 184.027 166.617 186.277 167.485C187.878 168.443 186.842 170.755 182.936 168.54Z" fill="black"/>
<path fill-rule="evenodd" clip-rule="evenodd" d="M223.153 246.228C224.238 243.367 228.738 249.046 229.293 250.063C229.784 250.964 230.174 251.908 230.464 252.882C231.725 252.929 232.983 252.695 234.18 252.227C235.958 251.53 236.901 250.329 238.346 249.179C239.344 248.385 240.867 248.815 241.624 249.684C242.515 250.707 242.305 251.98 241.574 253.002C240.187 254.94 236.932 255.931 234.647 255.91C233.338 255.897 232.092 255.639 230.942 255.14C230.959 255.27 230.978 255.399 230.992 255.529L231.014 255.756C231.179 257.588 231.105 259.945 229.925 261.377C227.988 263.726 224.47 260.555 226.342 258.22L226.4 258.15C227.578 256.772 227.321 253.712 226.939 252.071C226.689 251 226.289 249.942 225.757 248.977L225.649 248.785C225.493 248.514 223.861 245.965 223.522 246.391L223.507 246.415C223.377 246.645 223.064 246.463 223.153 246.228ZM232.93 229.405C235.277 230.295 239.046 232.688 237.368 236.288C235.219 239.587 230.777 237.088 228.612 235.987C226.646 235.187 225.211 238.451 227.085 239.463C242.66 247.058 244.781 227.549 233.716 227.699C232.498 227.715 232.304 229.111 232.93 229.405ZM208.21 221.738C210.203 220.989 212.409 221.109 214.339 221.998L214.485 222.067C216.351 222.964 218.582 224.733 218.024 226.98C217.801 227.882 216.692 228.223 215.903 227.98C214.589 227.575 214.084 226.07 212.857 225.413C211.851 224.875 210.593 224.669 209.483 224.981C206.878 225.715 205.734 228.633 205.329 231.039C205.278 231.347 204.875 231.538 204.653 231.259C202.037 227.991 204.676 223.065 208.21 221.738ZM240.965 214.232C244.852 213.173 250.234 216.409 249.969 220.77C249.843 222.863 246.866 223.357 245.978 221.512C245.489 220.497 245.342 219.546 244.408 218.801C243.636 218.186 242.655 217.928 241.697 218.174C240.642 218.444 239.755 219.162 239.146 220.052C238.595 220.856 238.375 221.924 237.786 222.655C237.64 222.834 237.411 222.887 237.212 222.762C235.799 221.873 236.092 219.422 236.641 218.118C237.427 216.253 238.995 214.769 240.965 214.232ZM199.318 215.742C201.434 213.028 205.633 210.007 209.253 210.476C211.334 210.746 212.778 213.751 210.773 215.162C208.451 216.795 205.437 216.866 203.077 218.551C202.086 219.258 201.183 220.08 200.6 221.148C200.141 221.989 199.714 223.063 198.932 223.644C198.727 223.797 198.421 223.857 198.201 223.685C195.918 221.901 197.942 217.506 199.318 215.742ZM234.858 205.602C236.341 204.871 238.079 204.558 239.721 204.538C241.361 204.519 243.098 204.878 244.574 205.598L244.745 205.682C246.361 206.487 248.34 207.727 248.601 209.635C248.819 211.229 247.356 212.606 245.768 212.045C244.473 211.587 243.672 210.337 242.515 209.62C241.56 209.029 240.491 208.621 239.391 208.4C238.169 208.156 236.991 208.154 235.766 208.36C234.824 208.519 233.936 209.003 233.032 209.273C233.137 209.415 232.395 209.478 231.951 209.417C231.617 209.343 231.543 208.952 231.603 208.678C231.901 207.321 233.691 206.176 234.858 205.602Z" fill="black"/>
</g>
</g>
<path d="M100.566 482.185C98.142 482.624 95.6112 481.663 94.0926 479.72C93.2572 478.651 92.8951 477.429 92.6577 476.125C92.3755 474.575 92.0934 473.025 91.8112 471.476C91.2818 468.568 90.7525 465.661 90.2231 462.754C89.472 458.628 88.7209 454.503 87.9697 450.377C87.0222 445.174 86.0749 439.97 85.1274 434.767C84.009 428.624 82.8907 422.482 81.7723 416.34C80.5085 409.399 79.2448 402.458 77.981 395.517C76.5972 387.917 75.2134 380.317 73.8296 372.717C72.3554 364.62 70.8814 356.525 69.4073 348.429C67.8598 339.929 66.3123 331.43 64.765 322.932C63.1783 314.218 61.5916 305.503 60.005 296.789C58.3954 287.949 56.7857 279.108 55.1761 270.268C53.5735 261.466 51.9708 252.664 50.3682 243.862C48.7979 235.238 47.2277 226.613 45.6575 217.99C44.1451 209.684 42.6328 201.377 41.1204 193.071C39.6912 185.222 38.2621 177.373 36.8329 169.523C35.5125 162.271 34.1921 155.019 32.8715 147.766C31.6852 141.251 30.4989 134.735 29.3126 128.22C28.2858 122.581 27.2591 116.942 26.2323 111.302C25.3906 106.68 24.5488 102.056 23.7071 97.4332C23.0773 93.9741 22.4473 90.5143 21.8175 87.0552C21.4212 84.8788 21.0251 82.7032 20.6288 80.5269C20.4895 79.7614 20.3347 78.9973 20.2112 78.229C19.8168 75.7874 20.7776 73.2809 22.7534 71.7753C23.9134 70.8917 25.2252 70.5839 26.6166 70.3305C28.8353 69.9266 31.0547 69.5225 33.2734 69.1185C37.3188 68.3819 41.3641 67.6454 45.4095 66.9088C50.9866 65.8934 56.5636 64.8779 62.1415 63.8623C68.956 62.6216 75.7706 61.3808 82.5851 60.14C90.343 58.7275 98.1008 57.315 105.858 55.9026C114.264 54.372 122.67 52.8415 131.077 51.3108C139.837 49.7158 148.598 48.1207 157.359 46.5255C166.154 44.9242 174.949 43.3228 183.744 41.7214C192.331 40.158 200.917 38.5945 209.504 37.0311C217.54 35.5679 225.576 34.1048 233.613 32.6414C240.852 31.3235 248.09 30.0055 255.329 28.6876C261.451 27.5729 267.572 26.4583 273.695 25.3436C278.406 24.4858 283.117 23.628 287.828 22.7702C290.834 22.223 293.84 21.6756 296.846 21.1283C297.937 20.9296 299.03 20.6907 300.129 20.536C302.581 20.1915 305.082 21.2596 306.522 23.2781C307.27 24.3285 307.573 25.5014 307.798 26.7394C308.091 28.3461 308.383 29.9527 308.676 31.5594C309.214 34.5179 309.753 37.4771 310.292 40.4355C311.049 44.5933 311.806 48.751 312.563 52.908C313.514 58.1323 314.465 63.3574 315.417 68.5817C316.54 74.7535 317.664 80.9252 318.788 87.097C320.056 94.063 321.324 101.029 322.593 107.995C323.98 115.616 325.368 123.236 326.755 130.856C328.236 138.991 329.718 147.127 331.199 155.262C332.749 163.772 334.298 172.283 335.848 180.793C337.44 189.538 339.032 198.284 340.625 207.03C342.235 215.871 343.844 224.713 345.454 233.555C347.056 242.352 348.658 251.15 350.26 259.948C351.828 268.562 353.397 277.176 354.965 285.79C356.475 294.081 357.984 302.372 359.494 310.662C360.915 318.469 362.336 326.275 363.758 334.081C365.07 341.289 366.382 348.496 367.695 355.704C368.876 362.192 370.057 368.68 371.239 375.168C372.259 380.774 373.28 386.381 374.301 391.988C375.136 396.573 375.971 401.16 376.806 405.745C377.43 409.171 378.053 412.596 378.677 416.022C379.064 418.147 379.451 420.272 379.838 422.397C379.983 423.193 380.161 423.99 380.265 424.792C380.586 427.25 379.482 429.746 377.446 431.161C376.293 431.962 375.013 432.214 373.67 432.459C371.373 432.877 369.075 433.295 366.777 433.714C362.665 434.463 358.553 435.211 354.44 435.96C348.826 436.982 343.212 438.005 337.597 439.027C330.762 440.271 323.929 441.516 317.095 442.76C309.309 444.177 301.525 445.595 293.74 447.012C285.316 448.546 276.893 450.08 268.47 451.613C259.703 453.21 250.935 454.806 242.168 456.402C233.351 458.008 224.534 459.613 215.717 461.218C207.145 462.779 198.573 464.34 190 465.901C181.967 467.363 173.934 468.826 165.901 470.289C158.702 471.599 151.502 472.91 144.303 474.221C138.232 475.326 132.161 476.432 126.09 477.537C121.441 478.384 116.793 479.23 112.144 480.076C109.212 480.61 106.28 481.144 103.349 481.678C102.421 481.847 101.493 482.016 100.566 482.185Z" stroke="#CFF800" stroke-width="1.5" stroke-miterlimit="10" stroke-linecap="round" stroke-linejoin="round"/>
<defs>
<clipPath id="clip0_84_24383">
<rect x="18.9102" y="71.6231" width="292" height="419" rx="8" transform="rotate(-10.3191 18.9102 71.6231)" fill="white"/>
</clipPath>
<clipPath id="clip1_84_24383">
<rect width="322.657" height="369.711" fill="white" transform="translate(10.4502 123.257) rotate(-10.5294)"/>
</clipPath>
</defs>
</svg>
