<svg width="435" height="96" viewBox="0 0 435 96" fill="none" xmlns="http://www.w3.org/2000/svg">
<path d="M59.7977 0.7395H44.8009V45.5557H44.1746L13.4157 0.7395H0.193539V72H15.2598V27.149H15.7818L46.7843 72H59.7977V0.7395ZM70.286 72H85.3523V42.5633H114.337V30.1414H85.3523V13.1614H117.468V0.7395H70.286V72ZM122.929 13.1614H144.745V72H159.638V13.1614H181.454V0.7395H122.929V13.1614ZM201.404 72L202.383 67.1988H203.755C205.846 67.1988 207.74 66.8396 209.438 66.121C211.202 65.4025 212.378 63.6714 212.966 60.9279L223.156 12.8182C223.221 12.4262 223.287 12.0016 223.352 11.5444C223.482 11.0871 223.548 10.6952 223.548 10.3686C223.548 8.80084 222.862 7.82101 221.49 7.42908C220.118 7.03715 218.453 6.84118 216.493 6.84118H215.219L216.199 2.04H246.084C255.229 2.04 262.349 4.32628 267.444 8.89882C272.539 13.4061 275.087 20.0036 275.087 28.6914C275.087 34.5051 274.205 40.0248 272.441 45.2506C270.678 50.4764 268.065 55.1142 264.603 59.1642C261.141 63.1489 256.895 66.2843 251.865 68.5706C246.835 70.8569 241.054 72 234.522 72H201.404ZM231.093 66.317C237.298 66.317 242.622 64.6839 247.064 61.4178C251.506 58.1517 254.902 53.6118 257.254 47.7982C259.606 41.9845 260.781 35.3216 260.781 27.8096C260.781 20.8201 259.181 15.725 255.98 12.5242C252.779 9.2581 248.468 7.62505 243.046 7.62505H237.559L225.116 66.317H231.093ZM287.526 32.6108C287.657 31.8922 287.788 31.1083 287.918 30.2592C288.049 29.41 288.114 28.6914 288.114 28.1035C288.114 26.6011 287.559 25.5886 286.448 25.0661C285.338 24.5435 283.836 24.2822 281.941 24.2822H280.569L281.451 19.481H301.44L299.382 33.1987H300.068C301.505 30.1938 302.975 27.6136 304.477 25.458C305.98 23.237 307.743 21.5387 309.768 20.3629C311.793 19.1217 314.341 18.5012 317.411 18.5012C320.612 18.5012 322.963 19.1544 324.466 20.4608C326.034 21.7673 326.817 23.5636 326.817 25.8499C326.817 31.8596 323.388 34.8644 316.529 34.8644C316.529 32.1208 316.235 29.9652 315.647 28.3975C315.06 26.7644 313.884 25.9479 312.12 25.9479C310.618 25.9479 309.05 26.7971 307.417 28.4955C305.784 30.1285 304.216 32.3495 302.714 35.1583C301.211 37.9018 299.839 41.0047 298.598 44.4667C297.357 47.8635 296.377 51.2929 295.659 54.755L291.935 72H279.296L287.526 32.6108ZM346.512 72.9798C340.568 72.9798 335.734 71.2815 332.011 67.8847C328.287 64.488 326.426 59.3602 326.426 52.5013C326.426 48.8433 327.046 45.0546 328.287 41.1353C329.528 37.1506 331.423 33.4599 333.97 30.0632C336.518 26.6011 339.751 23.8249 343.671 21.7346C347.59 19.579 352.195 18.5012 357.486 18.5012C361.079 18.5012 364.378 19.2197 367.383 20.6568C370.387 22.0286 372.772 24.2169 374.535 27.2217C376.364 30.2265 377.279 34.1458 377.279 38.9797C377.279 42.5071 376.658 46.2304 375.417 50.1497C374.241 54.0691 372.38 57.7598 369.832 61.2218C367.35 64.6839 364.149 67.5254 360.23 69.7464C356.376 71.902 351.803 72.9798 346.512 72.9798ZM347.982 66.7089C350.268 66.7089 352.26 66.023 353.959 64.6513C355.723 63.2795 357.225 61.4831 358.466 59.2622C359.773 56.9759 360.85 54.4937 361.7 51.8155C362.549 49.0719 363.169 46.3611 363.561 43.6829C363.953 41.0047 364.149 38.5877 364.149 36.4321C364.149 32.1208 363.398 29.0507 361.895 27.2217C360.458 25.3927 358.433 24.4782 355.821 24.4782C353.077 24.4782 350.693 25.4906 348.668 27.5156C346.643 29.5406 344.944 32.1535 343.573 35.3543C342.266 38.4898 341.286 41.7885 340.633 45.2506C339.98 48.7127 339.653 51.8481 339.653 54.657C339.653 59.0336 340.372 62.1364 341.809 63.9654C343.311 65.7944 345.369 66.7089 347.982 66.7089ZM390.466 33.1987C390.662 32.1535 390.825 31.2063 390.956 30.3571C391.087 29.4426 391.152 28.8547 391.152 28.5934C391.152 26.7644 390.629 25.5886 389.584 25.0661C388.604 24.5435 387.2 24.2822 385.371 24.2822H383.999L384.881 19.481H404.478L402.028 32.5128H402.616C404.053 29.8346 405.588 27.4503 407.221 25.36C408.854 23.2044 410.781 21.5387 413.002 20.3629C415.223 19.1217 417.901 18.5012 421.037 18.5012C425.217 18.5012 428.516 20.0363 430.933 23.1064C433.35 26.1112 434.558 30.4878 434.558 36.2361C434.558 39.045 434.166 42.1151 433.383 45.4466C432.599 48.7127 431.423 51.9788 429.855 55.2449C428.287 58.511 426.295 61.4831 423.878 64.1613C421.461 66.8396 418.652 68.9952 415.452 70.6282C412.251 72.196 408.658 72.9798 404.674 72.9798C402.714 72.9798 400.885 72.7512 399.186 72.2939C397.553 71.902 396.084 71.3794 394.777 70.7262C394.777 71.2488 394.679 71.9673 394.483 72.8818C394.353 73.7964 394.189 74.6455 393.993 75.4294L392.622 81.7983C392.491 82.4515 392.328 83.2681 392.132 84.2479C392.001 85.2931 391.936 86.0443 391.936 86.5015C391.936 88.3305 392.426 89.4737 393.405 89.9309C394.451 90.4535 395.888 90.7148 397.717 90.7148H400.558L399.676 95.516H377.238L390.466 33.1987ZM403.89 67.3948C406.176 67.3948 408.234 66.7089 410.063 65.3371C411.957 63.9654 413.59 62.169 414.962 59.9481C416.399 57.6618 417.607 55.1469 418.587 52.4034C419.632 49.6598 420.384 46.9163 420.841 44.1728C421.363 41.4292 421.625 38.9143 421.625 36.6281C421.625 34.799 421.461 33.068 421.135 31.435C420.808 29.7366 420.22 28.3648 419.371 27.3197C418.587 26.2745 417.477 25.7519 416.04 25.7519C414.276 25.7519 412.545 26.4378 410.846 27.8096C409.213 29.116 407.678 30.8471 406.241 33.0027C404.804 35.1583 403.596 37.4446 402.616 39.8615C401.636 42.2131 400.918 44.4014 400.46 46.4264L396.639 64.3573C397.227 65.0105 398.174 65.6964 399.48 66.415C400.787 67.0682 402.257 67.3948 403.89 67.3948Z" fill="white"/>
</svg>
